<svg width="59" height="16" viewBox="0 0 59 16" fill="none" xmlns="http://www.w3.org/2000/svg">
<path d="M25.1997 8.34804C25.1997 8.9739 25.0811 9.47255 24.8433 9.84338C24.6055 10.2148 24.2892 10.4002 23.8953 10.4002C23.49 10.4002 23.1681 10.2148 22.9303 9.84338C22.6925 9.47255 22.5737 8.9739 22.5737 8.34804C22.5737 7.72188 22.6925 7.22384 22.9303 6.8527C23.1678 6.48156 23.49 6.29584 23.8953 6.29584C24.2892 6.29584 24.6055 6.48156 24.8433 6.8527C25.0811 7.22384 25.1997 7.72188 25.1997 8.34804ZM28.6779 8.34804C28.6779 6.93309 28.2486 5.81474 27.3908 4.99145C26.5327 4.16848 25.3675 3.75699 23.8953 3.75699C22.4227 3.75699 21.2548 4.16848 20.3912 4.99145C19.5275 5.81505 19.0954 6.9334 19.0954 8.34804C19.0954 9.76269 19.5275 10.881 20.3912 11.7043C21.2548 12.5279 22.4227 12.9388 23.8953 12.9388C25.3675 12.9388 26.5327 12.5279 27.3908 11.7043C28.2486 10.881 28.6779 9.76269 28.6779 8.34804ZM35.7213 3.84384C35.0717 3.84384 34.5004 4.03542 34.0082 4.41765C33.5148 4.79957 33.1532 5.32163 32.9218 5.9826V4H29.1821V6.33002H30.0522V10.3651H29.1821V12.6955H35.0086V10.3651H33.3558L33.3383 9.09525C33.3845 8.50389 33.6256 8.0231 34.0605 7.65134C34.4957 7.28051 35.0717 7.0954 35.7909 7.0954H36.069V3.84384H35.7213ZM1.04381 4.53038C0.34804 5.04659 0.000308015 5.74544 0.000308015 6.62632C0.000308015 7.20567 0.159852 7.67814 0.478941 8.04374C0.797105 8.40872 1.18611 8.66959 1.6438 8.82606C2.10149 8.98252 2.55918 9.11311 3.01748 9.21753C3.47548 9.32163 3.86386 9.45499 4.18295 9.61731C4.50112 9.78055 4.66097 10.0002 4.66097 10.2783C4.66097 10.5219 4.57165 10.6928 4.39178 10.7908C4.2116 10.8906 3.90729 10.9386 3.47825 10.9386C3.27004 10.9386 3.0492 10.9217 2.81789 10.8875V9.96566H0V12.5214C1.24032 12.7999 2.45753 12.9388 3.65196 12.9388C5.06661 12.9388 6.14769 12.6807 6.8952 12.1651C7.64334 11.6489 8.01694 10.9386 8.01694 10.0343C8.01694 9.4436 7.85432 8.94803 7.5303 8.54732C7.20536 8.14815 6.80866 7.85493 6.33896 7.66952C5.87768 7.48674 5.4076 7.327 4.93047 7.19088C4.46077 7.05783 4.06345 6.91892 3.73912 6.77354C3.41388 6.62909 3.25187 6.44645 3.25187 6.22623C3.25187 5.85447 3.51336 5.66967 4.0348 5.66967C4.32432 5.66967 4.69547 5.75098 5.1473 5.91299V6.83484H7.66921V4.79957C6.44029 4.10472 5.15315 3.75668 3.80812 3.75668C2.66081 3.75699 1.73928 4.01478 1.04381 4.53038ZM14.9565 8.34804C14.9565 8.9739 14.8435 9.47255 14.6171 9.84338C14.3913 10.2148 14.0867 10.4002 13.7045 10.4002C13.3327 10.4002 13.037 10.2148 12.8174 9.84338C12.5969 9.47255 12.4873 8.9739 12.4873 8.34804C12.4873 7.72188 12.5969 7.22384 12.8174 6.8527C13.0373 6.48156 13.3327 6.29614 13.7045 6.29614C14.0867 6.29614 14.391 6.48156 14.6171 6.8527C14.8435 7.22384 14.9565 7.72188 14.9565 8.34804ZM18.4351 8.3656C18.4351 6.95064 18.1184 5.82891 17.4867 4.99977C16.8547 4.17125 15.9942 3.75699 14.9038 3.75699C13.5825 3.75699 12.6314 4.3887 12.0517 5.65273V4.00031H8.31293V6.33033H9.18272V13.6697H8.31293V16H13.7045V13.6697H12.4869V11.7394C13.0897 12.5384 13.9065 12.9391 14.9383 12.9391C16.0055 12.9391 16.8544 12.5282 17.4864 11.7046C18.1184 10.881 18.4351 9.76792 18.4351 8.3656ZM48.4509 9.58281C48.4509 9.97675 48.3499 10.2897 48.1472 10.5219C47.9439 10.7541 47.6624 10.8696 47.3033 10.8696C47.0015 10.8696 46.7643 10.7883 46.5906 10.6254C46.4169 10.4643 46.33 10.2493 46.33 9.98291C46.33 9.71587 46.4304 9.50766 46.6337 9.35705C46.8364 9.20613 47.1173 9.13067 47.4764 9.13067C47.7555 9.13067 48.0798 9.18857 48.4509 9.30469V9.58281ZM52.5729 12.6958V10.3654H51.7031V6.90414C51.7031 5.93086 51.3433 5.16209 50.6251 4.59998C49.9056 4.03819 48.8861 3.75699 47.5639 3.75699C46.1261 3.75699 44.8045 4.10503 43.599 4.80019V6.83514H46.4517V5.93085C46.7646 5.87295 47.031 5.84369 47.2513 5.84369C48.0508 5.84369 48.4512 6.19142 48.4512 6.88689V7.77424C47.9532 7.68153 47.3954 7.63471 46.7819 7.63471C45.6219 7.63471 44.7149 7.87557 44.0598 8.35636C43.4046 8.83807 43.0775 9.49565 43.0775 10.33C43.0775 11.1194 43.3446 11.7508 43.8777 12.2261C44.4103 12.7013 45.1356 12.9394 46.0519 12.9394C47.3843 12.9394 48.3179 12.4466 48.8516 11.4613V12.6958H52.5729ZM38.573 1.77377L37.3032 4.00031H36.3296L36.3471 6.31308H37.3032L37.3213 9.91361C37.3318 10.7942 37.6364 11.4927 38.2336 12.0089C38.8311 12.5251 39.6452 12.782 40.6773 12.782H42.5903V10.452H41.6687C41.3438 10.452 41.0882 10.3599 40.9031 10.1742C40.718 9.98845 40.6259 9.73928 40.6259 9.42573L40.6077 6.31308H42.399V4.00031H40.6077L40.5901 1.77377H38.573ZM53.0078 0V2.33064H53.8763V10.3654H53.0078V12.6958H58.0507V10.3654H57.1809V0H53.0078Z" fill="white"/>
</svg>
